<svg xmlns="http://www.w3.org/2000/svg" viewBox="0 0 720 460" role="img"><g stroke="#064f4a" stroke-width="5" stroke-linecap="round" stroke-linejoin="round"><rect x="150" y="130" width="170" height="120" rx="22" fill="#fff"/><rect x="182" y="160" width="105" height="65" rx="10" fill="#dff4f1"/><text x="202" y="205" font-family="Arial" font-size="34" fill="#064f4a" stroke="none">120</text><path d="M320 190h120c55 0 80 35 80 75v20H300v-45c0-27 8-50 20-50z" fill="#5aaec6"/><path d="M505 290c30-45 45-74 45-100" fill="none"/><path d="M515 175c70-20 90 45 35 72-37 18-57-27-35-72z" fill="#0b9b8e"/><path d="M585 225l28 28"/><circle cx="600" cy="295" r="28" fill="#fff"/><path d="M585 295h30M600 280v30" stroke="#0b9b8e"/></g></svg>